<svg width="67" height="67" fill="none" xmlns="http://www.w3.org/2000/svg"><ellipse cx="49" cy="32" rx="12" ry="13" fill="#FF7D7D"/><path d="M48.92 48.58c-3.15 0-5.88-.67-8.19-1.99a13.82 13.82 0 0 1-5.31-5.63 18.16 18.16 0 0 1-1.92-8.58c0-2.51.36-4.75 1.09-6.72a14.75 14.75 0 0 1 3.07-5.05 13.05 13.05 0 0 1 4.86-3.27 17.1 17.1 0 0 1 6.4-1.15c3.12 0 5.8.66 8.07 1.99a13.7 13.7 0 0 1 5.37 5.63 17.93 17.93 0 0 1 1.92 8.57c0 2.48-.36 4.72-1.08 6.72-.73 2-1.77 3.72-3.14 5.12a13.4 13.4 0 0 1-4.86 3.27 17.28 17.28 0 0 1-6.28 1.09Zm0-5c1.75 0 3.29-.42 4.61-1.28a8.27 8.27 0 0 0 3.07-3.77 14.62 14.62 0 0 0 1.16-6.15c0-3.67-.81-6.44-2.44-8.32a8.05 8.05 0 0 0-6.4-2.81c-1.79 0-3.34.42-4.67 1.28a8.24 8.24 0 0 0-3.13 3.71 15.37 15.37 0 0 0-1.1 6.14c0 3.63.82 6.4 2.44 8.32a8.04 8.04 0 0 0 6.46 2.88Z" fill="red"/><path fill-rule="evenodd" clip-rule="evenodd" d="M39.73 48.32a15.82 15.82 0 0 1-6.08-6.43 20.15 20.15 0 0 1-2.15-9.5c0-2.71.39-5.2 1.21-7.42.81-2.2 1.97-4.11 3.5-5.73a15.05 15.05 0 0 1 5.58-3.76 19.1 19.1 0 0 1 7.13-1.29c3.4 0 6.45.73 9.07 2.26a15.7 15.7 0 0 1 6.14 6.42 19.92 19.92 0 0 1 2.15 9.51c0 2.67-.39 5.15-1.2 7.4-.81 2.25-2 4.2-3.57 5.82a15.4 15.4 0 0 1-5.57 3.74h-.01l-.01.01a19.27 19.27 0 0 1-7 1.23c-3.44 0-6.52-.73-9.18-2.25h-.01Zm20.33-4.1a14.16 14.16 0 0 0 3.14-5.12c.72-2 1.08-4.24 1.08-6.72 0-3.32-.64-6.18-1.92-8.57A13.7 13.7 0 0 0 57 18.18a15.7 15.7 0 0 0-8.07-1.99c-2.34 0-4.48.39-6.4 1.15-1.87.73-3.5 1.82-4.86 3.27a14.75 14.75 0 0 0-3.07 5.05 19.3 19.3 0 0 0-1.09 6.72c0 3.29.64 6.15 1.92 8.58a13.82 13.82 0 0 0 5.31 5.63 16.18 16.18 0 0 0 8.2 1.99c2.3 0 4.39-.37 6.27-1.1a13.4 13.4 0 0 0 4.86-3.26Zm-5.28-6.51v-.02c.62-1.33.98-3.07.98-5.3 0-3.42-.76-5.64-1.95-7.02a6.05 6.05 0 0 0-4.89-2.12c-1.46 0-2.63.34-3.58.96l-.02.01-.02.01a6.25 6.25 0 0 0-2.36 2.83c-.58 1.34-.91 3.09-.91 5.32 0 3.36.75 5.6 1.96 7.03a6.04 6.04 0 0 0 4.93 2.17c1.41 0 2.56-.33 3.53-.96a6.28 6.28 0 0 0 2.32-2.9l.01-.01ZM41.12 26.24a8.24 8.24 0 0 1 3.13-3.71 8.43 8.43 0 0 1 4.67-1.28c2.65 0 4.78.94 6.4 2.81 1.63 1.88 2.44 4.65 2.44 8.32 0 2.44-.39 4.48-1.16 6.15a8.27 8.27 0 0 1-3.07 3.77 8.31 8.31 0 0 1-4.6 1.28 8.04 8.04 0 0 1-6.47-2.88c-1.62-1.92-2.43-4.69-2.43-8.32 0-2.43.36-4.48 1.09-6.14Z" fill="#fff"/><path d="M21.22 48.58c-1.62 0-2.85-.45-3.7-1.35-.86-.9-1.29-2.17-1.29-3.84V24.83l2.05 5.7L3.18 9.09a4.4 4.4 0 0 1 .5-5.63c.78-.77 1.86-1.16 3.27-1.16 1.03 0 1.94.26 2.75.77a8.21 8.21 0 0 1 2.44 2.43L22.38 20.3h-2.05L30.57 5.5a8.6 8.6 0 0 1 2.37-2.43 5.16 5.16 0 0 1 2.81-.77c1.37 0 2.43.37 3.2 1.1a3.56 3.56 0 0 1 1.22 2.62 5.26 5.26 0 0 1-1.09 3.2l-14.91 21.3 1.98-5.69V43.4c0 3.46-1.64 5.19-4.93 5.19Z" fill="#000"/><path fill-rule="evenodd" clip-rule="evenodd" d="M16.23 27.62 3.18 9.1a4.4 4.4 0 0 1 .5-5.63c.78-.77 1.86-1.16 3.27-1.16 1.03 0 1.94.26 2.75.77a8.21 8.21 0 0 1 2.44 2.43l9.21 13.31 9.22-13.3a8.6 8.6 0 0 1 2.37-2.44 5.16 5.16 0 0 1 2.81-.77c1.37 0 2.43.37 3.2 1.1a3.56 3.56 0 0 1 1.22 2.62 5.26 5.26 0 0 1-1.09 3.2L26.15 27.69v15.7c0 3.46-1.64 5.19-4.93 5.19-1.62 0-2.85-.45-3.7-1.35-.86-.9-1.29-2.17-1.29-3.84V27.62Zm11.92.7V43.4c0 2.01-.47 3.9-1.78 5.27-1.32 1.4-3.17 1.92-5.15 1.92-1.99 0-3.82-.56-5.16-1.97-1.31-1.38-1.83-3.22-1.83-5.22V28.25L1.53 10.22l-.02-.02a6.4 6.4 0 0 1 .76-8.16A6.4 6.4 0 0 1 6.95.3c1.37 0 2.66.35 3.8 1.07a10.2 10.2 0 0 1 3.03 3l7.57 10.93 7.58-10.94a10.55 10.55 0 0 1 2.95-2.99A7.16 7.16 0 0 1 35.75.3c1.71 0 3.32.46 4.55 1.62a5.55 5.55 0 0 1 1.87 4.02 7.24 7.24 0 0 1-1.45 4.41v.01L28.15 28.32Z" fill="#fff"/></svg>
