<svg width="66" height="55" fill="none" xmlns="http://www.w3.org/2000/svg"><ellipse cx="48" cy="37" rx="12" ry="13" fill="#FF7D7D"/><path d="M47.92 53.58c-3.15 0-5.88-.67-8.19-1.99a13.82 13.82 0 0 1-5.31-5.63 18.16 18.16 0 0 1-1.92-8.58c0-2.51.36-4.75 1.09-6.72a14.75 14.75 0 0 1 3.07-5.05 13.05 13.05 0 0 1 4.86-3.27 17.1 17.1 0 0 1 6.4-1.15c3.12 0 5.8.66 8.07 1.99a13.7 13.7 0 0 1 5.37 5.63 17.93 17.93 0 0 1 1.92 8.57c0 2.48-.36 4.72-1.08 6.72-.73 2-1.77 3.72-3.14 5.12a13.4 13.4 0 0 1-4.86 3.27 17.28 17.28 0 0 1-6.28 1.09Zm0-5c1.75 0 3.29-.42 4.61-1.28a8.27 8.27 0 0 0 3.07-3.77 14.62 14.62 0 0 0 1.16-6.15c0-3.67-.81-6.44-2.44-8.32a8.05 8.05 0 0 0-6.4-2.81c-1.79 0-3.34.42-4.67 1.28a8.24 8.24 0 0 0-3.13 3.71 15.37 15.37 0 0 0-1.1 6.14c0 3.63.82 6.4 2.44 8.32a8.04 8.04 0 0 0 6.46 2.88Z" fill="red"/><path d="M20.22 53.58c-1.62 0-2.85-.45-3.7-1.35-.86-.9-1.29-2.17-1.29-3.84V29.83l2.05 5.7-15.1-21.44a4.4 4.4 0 0 1 .5-5.63c.78-.77 1.86-1.16 3.27-1.16 1.03 0 1.94.26 2.75.77a8.2 8.2 0 0 1 2.44 2.43L21.38 25.3h-2.05L29.57 10.5a8.6 8.6 0 0 1 2.37-2.43 5.16 5.16 0 0 1 2.81-.77c1.37 0 2.43.37 3.2 1.1a3.56 3.56 0 0 1 1.22 2.62 5.26 5.26 0 0 1-1.09 3.2l-14.91 21.3 1.98-5.69V48.4c0 3.46-1.64 5.19-4.93 5.19Z" fill="#000"/></svg>