<svg width="274" height="87" fill="none" xmlns="http://www.w3.org/2000/svg"><path fill="url(#a)" d="M11 34h247v31H11z"/><path d="M25.22 65.58c-4.19 0-7.81-.75-10.88-2.24a16.38 16.38 0 0 1-7.17-6.66c-1.67-2.94-2.5-6.55-2.5-10.82 0-3.92.56-7.48 1.67-10.68 1.1-3.25 2.7-6.06 4.8-8.45a20.94 20.94 0 0 1 7.61-5.5 25.6 25.6 0 0 1 10.18-1.93c2.69 0 5.18.35 7.49 1.03a18 18 0 0 1 6.01 2.94c.68.47 1.11 1.03 1.28 1.67.22.64.24 1.28.07 1.92-.17.6-.47 1.1-.9 1.53-.43.43-.94.68-1.54.77-.6.04-1.23-.17-1.92-.64a13.89 13.89 0 0 0-4.99-2.56c-1.79-.55-3.75-.83-5.89-.83-3.54 0-6.57.87-9.08 2.62a16.96 16.96 0 0 0-5.83 7.23 26.66 26.66 0 0 0-1.98 10.63c0 4.82 1.24 8.4 3.71 10.75 2.47 2.3 6.04 3.46 10.69 3.46 1.92 0 3.71-.17 5.37-.52 1.71-.34 3.33-.79 4.87-1.34l-1.8 3.07 2.44-14.91h-8.26c-.85 0-1.53-.2-2.05-.58a1.89 1.89 0 0 1-.76-1.6c0-.9.27-1.57.83-2.04.6-.52 1.36-.77 2.3-.77H40c1.02 0 1.77.28 2.24.83.51.55.68 1.34.51 2.37l-2.5 16.13a4.98 4.98 0 0 1-.83 1.98c-.34.47-.9.85-1.66 1.15a28.22 28.22 0 0 1-5.89 1.47c-2.26.35-4.48.52-6.65.52Zm24.92-.13c-1.02 0-1.77-.32-2.24-.96-.47-.64-.62-1.54-.45-2.69l4.03-25.34a3.78 3.78 0 0 1 1.16-2.37 3.87 3.87 0 0 1 2.5-.77c.97 0 1.7.32 2.17.96.47.6.62 1.5.45 2.69l-.7 4.29h-.65a11 11 0 0 1 4.35-5.83 13.3 13.3 0 0 1 7.04-2.3c1.07-.04 1.78.1 2.12.45.38.34.57.93.57 1.79 0 1.1-.25 1.92-.77 2.43-.5.51-1.34.83-2.5.96l-1.53.2c-3.15.3-5.42 1.23-6.78 2.8-1.37 1.59-2.28 3.74-2.75 6.47l-2.24 14.15a3.34 3.34 0 0 1-1.16 2.3c-.64.51-1.51.77-2.62.77Zm28.94.13c-1.84 0-3.54-.4-5.12-1.22a10.37 10.37 0 0 1-3.78-3.4 8.76 8.76 0 0 1-1.4-4.86c0-2.21.6-4 1.79-5.37 1.23-1.37 3.15-2.37 5.76-3.01 2.6-.68 5.95-1.02 10.05-1.02h5.12l-.58 3.96h-3.97c-2.94 0-5.29.15-7.04.45-1.7.3-2.92.83-3.65 1.6a4.07 4.07 0 0 0-1.09 3.01c0 1.7.56 3 1.67 3.9a6.47 6.47 0 0 0 4.1 1.35 8.65 8.65 0 0 0 7.16-3.71 9.9 9.9 0 0 0 1.73-4.42l1.22-7.68c.38-2.26.06-3.99-.96-5.18-.98-1.2-2.76-1.8-5.31-1.8-1.5 0-2.95.15-4.36.45-1.36.3-2.75.81-4.16 1.54-.64.34-1.23.47-1.79.38-.55-.13-1-.36-1.34-.7a2.25 2.25 0 0 1-.58-1.35c-.04-.5.09-1.02.39-1.53.34-.51.9-.96 1.66-1.35 1.7-.85 3.52-1.47 5.44-1.85 1.92-.39 3.75-.58 5.5-.58 3.12 0 5.57.58 7.36 1.73a8.5 8.5 0 0 1 3.71 4.8c.69 2.05.82 4.42.39 7.1l-2.43 15.43a3.65 3.65 0 0 1-1.15 2.43c-.6.51-1.4.77-2.37.77-.94 0-1.65-.3-2.11-.9-.47-.64-.62-1.53-.45-2.69l.7-4.67.51.96a10.62 10.62 0 0 1-2.56 4.23 10.25 10.25 0 0 1-3.77 2.43c-1.37.51-2.8.77-4.3.77Zm33.93-.13a3.87 3.87 0 0 1-2.5-.77 5.1 5.1 0 0 1-1.34-2.37l-6.65-24.45c-.26-.9-.3-1.68-.13-2.36.17-.69.51-1.22 1.02-1.6a3.51 3.51 0 0 1 2.05-.58c.9 0 1.58.21 2.05.64.51.43.9 1.2 1.15 2.3l5.76 23.43h-1.86l13.83-24.13c.47-.81.96-1.39 1.47-1.73a3.84 3.84 0 0 1 2.05-.51c.85 0 1.51.2 1.98.58.47.38.73.9.77 1.53.04.6-.17 1.28-.64 2.05l-15.04 25.47a5.61 5.61 0 0 1-1.8 1.92c-.59.39-1.31.58-2.17.58Zm22.18 0c-.98 0-1.7-.32-2.17-.96-.47-.68-.62-1.62-.45-2.82l4.03-25.15a3.77 3.77 0 0 1 1.15-2.37c.64-.55 1.5-.83 2.56-.83.98 0 1.7.34 2.18 1.02.47.64.62 1.56.45 2.76l-4.04 25.15a4.09 4.09 0 0 1-1.15 2.43c-.6.51-1.45.77-2.56.77Zm6.21-38.66c-1.2 0-2.1-.3-2.69-.9-.6-.6-.85-1.42-.77-2.49.13-1.28.6-2.24 1.41-2.88a4.8 4.8 0 0 1 3.2-1.02c1.24 0 2.16.3 2.75.9.6.59.86 1.42.77 2.49a4.22 4.22 0 0 1-1.4 2.94c-.77.64-1.86.96-3.27.96Zm18.06 38.79c-2.56 0-4.7-.5-6.4-1.48a8.04 8.04 0 0 1-3.52-4.1c-.64-1.74-.77-3.79-.39-6.14l2.44-15.1h-3.46c-.85 0-1.54-.2-2.05-.58-.47-.38-.7-.9-.7-1.53 0-.94.3-1.64.9-2.11a3.77 3.77 0 0 1 2.43-.77h3.64l1.1-6.85c.16-1.02.55-1.77 1.14-2.24.6-.51 1.4-.77 2.37-.77 1.11 0 1.9.32 2.37.96.47.6.62 1.47.45 2.63l-.96 6.27h7.04c.9 0 1.58.17 2.05.51.47.34.7.87.7 1.6 0 .81-.28 1.5-.83 2.05-.51.55-1.26.83-2.24.83h-7.49l-2.37 14.6c-.38 2.42-.1 4.17.83 5.24.94 1.07 2.33 1.6 4.16 1.6a7.6 7.6 0 0 0 1.92-.2c.52-.16.96-.25 1.35-.25.51 0 .87.15 1.09.45.25.26.38.73.38 1.4 0 1.16-.2 1.97-.58 2.44-.34.47-.85.81-1.53 1.02-.47.17-1.09.3-1.86.39-.72.08-1.38.13-1.98.13Zm13.83 11.39c-.81 0-1.45-.2-1.92-.58-.43-.38-.66-.9-.7-1.53 0-.64.18-1.3.57-1.99l6.08-10.05-.45 2.76-7.55-27.78a5.4 5.4 0 0 1-.13-2.3c.17-.69.53-1.22 1.09-1.6a3.4 3.4 0 0 1 1.98-.58c.94 0 1.62.21 2.05.64.47.43.83 1.2 1.09 2.3l5.82 23.5h-1.92l13.89-24.07c.47-.86.96-1.45 1.47-1.8.51-.38 1.2-.57 2.05-.57.81 0 1.45.21 1.92.64a2 2 0 0 1 .83 1.54c.04.6-.15 1.28-.57 2.04L176.8 74.66a5.1 5.1 0 0 1-1.48 1.73c-.5.39-1.19.58-2.04.58Zm55.37-11.52c-1.07 0-1.84-.34-2.3-1.03-.43-.68-.56-1.62-.39-2.81l3.14-19.9.7 4.22-12.1-21.76a4.31 4.31 0 0 1-.64-2.3c.1-.73.39-1.3.9-1.73.56-.47 1.28-.7 2.18-.7.8 0 1.45.18 1.92.57.5.34 1.02.96 1.53 1.85l9.6 17.35h-1.53l15.55-17.8a5.92 5.92 0 0 1 1.73-1.53c.55-.3 1.21-.45 1.98-.45.81 0 1.47.24 1.99.7.5.48.76 1.07.76 1.8 0 .72-.32 1.47-.96 2.24L233.6 45.93l2.11-4.23-3.26 20.48c-.35 2.18-1.6 3.27-3.78 3.27Z" fill="#000"/><path d="M257.08 65.38c-2.94 0-5.46-.55-7.55-1.66-2.1-1.1-3.71-2.7-4.87-4.8A15.63 15.63 0 0 1 243 51.5c0-2.73.4-5.2 1.22-7.43a18.48 18.48 0 0 1 3.52-5.89 15.94 15.94 0 0 1 12.1-5.18c2.94 0 5.45.58 7.54 1.73 2.1 1.1 3.7 2.7 4.8 4.8a14.79 14.79 0 0 1 1.73 7.36c0 2.73-.43 5.22-1.28 7.49a17.06 17.06 0 0 1-3.52 5.88 15.68 15.68 0 0 1-5.31 3.78c-2.05.9-4.29 1.34-6.72 1.34Z" fill="red"/><defs><linearGradient id="a" x1="258" y1="49" x2="11" y2="49" gradientUnits="userSpaceOnUse"><stop stop-color="red" stop-opacity=".49"/><stop offset="1" stop-color="red" stop-opacity="0"/></linearGradient></defs></svg>