<svg width="274" height="87" fill="none" xmlns="http://www.w3.org/2000/svg"><path fill="url(#a)" d="M12 34h247v31H12z"/><path d="M25.02 65.58c-4.18 0-7.78-.75-10.81-2.24-2.99-1.5-5.3-3.7-6.91-6.6-1.63-2.9-2.44-6.46-2.44-10.68 0-3.97.54-7.58 1.6-10.82 1.11-3.29 2.7-6.1 4.74-8.45a20.6 20.6 0 0 1 7.42-5.5c2.9-1.32 6.21-1.99 9.92-1.99 2.73 0 5.3.39 7.68 1.16 2.4.72 4.4 1.8 6.02 3.26.55.43.9.92 1.02 1.47.17.56.17 1.07 0 1.54a2.7 2.7 0 0 1-.7 1.21c-.34.35-.77.54-1.28.58-.51.04-1.07-.17-1.66-.64A13.83 13.83 0 0 0 34.5 25a19.72 19.72 0 0 0-6.28-.96c-3.7 0-6.89.92-9.53 2.75a17.86 17.86 0 0 0-6.15 7.68 28.89 28.89 0 0 0-2.1 11.46c0 5.08 1.27 8.85 3.83 11.33 2.6 2.43 6.38 3.64 11.33 3.64 2.1 0 4.01-.19 5.76-.57a35 35 0 0 0 5.06-1.47l-1.6 2.75 2.56-15.94h-9.16c-.76 0-1.36-.15-1.79-.45a1.64 1.64 0 0 1-.64-1.34c0-.77.24-1.34.7-1.73a2.9 2.9 0 0 1 1.93-.64h11.52c.8 0 1.43.24 1.85.7.43.48.56 1.14.39 1.99l-2.63 16.7a3.66 3.66 0 0 1-.57 1.67c-.3.38-.75.68-1.35.9A30.93 30.93 0 0 1 31.74 65c-2.26.38-4.5.58-6.72.58Zm25.07-.13c-.82 0-1.41-.26-1.8-.77-.34-.51-.44-1.26-.32-2.24l4.16-26.5c.17-.85.5-1.47.96-1.85a3 3 0 0 1 1.99-.64c.77 0 1.34.25 1.73.77.38.5.5 1.23.38 2.17l-.77 4.93h-.7a11.2 11.2 0 0 1 4.48-5.89 13.87 13.87 0 0 1 7.17-2.17c.93-.05 1.57.08 1.92.38.34.26.5.73.5 1.4 0 .9-.2 1.57-.63 2-.43.38-1.11.63-2.05.76l-1.28.06c-3.41.3-5.87 1.33-7.36 3.08-1.5 1.75-2.48 4.05-2.94 6.9l-2.44 15.11a2.66 2.66 0 0 1-.9 1.86 3.2 3.2 0 0 1-2.1.64Zm29.15.13c-1.8 0-3.48-.4-5.06-1.22a9.98 9.98 0 0 1-3.71-3.33c-.94-1.4-1.4-3-1.4-4.8 0-2.22.59-3.99 1.78-5.31 1.24-1.37 3.16-2.37 5.76-3 2.6-.65 5.96-.97 10.05-.97h5.12l-.51 3.4h-3.9c-3.29 0-5.9.16-7.81.5-1.88.35-3.22.92-4.03 1.73a4.5 4.5 0 0 0-1.22 3.33c0 1.88.62 3.3 1.86 4.29a6.97 6.97 0 0 0 4.35 1.47 9.35 9.35 0 0 0 7.8-4.03 11.66 11.66 0 0 0 1.86-4.8l1.22-7.8c.43-2.48.1-4.36-.96-5.64-1.03-1.28-2.9-1.92-5.63-1.92-1.58 0-3.08.15-4.48.45-1.41.3-2.82.85-4.23 1.66-.55.3-1.06.43-1.53.39a1.8 1.8 0 0 1-1.16-.52c-.3-.34-.46-.72-.5-1.15-.05-.42.06-.85.31-1.28.26-.42.7-.8 1.35-1.15a18.4 18.4 0 0 1 5.24-1.92c1.92-.43 3.78-.64 5.57-.64 2.9 0 5.2.55 6.91 1.66a8.1 8.1 0 0 1 3.59 4.55c.64 1.96.75 4.26.32 6.91l-2.63 16.45c-.08.85-.38 1.5-.9 1.92-.46.42-1.1.64-1.91.64-.77 0-1.35-.26-1.73-.77-.34-.51-.45-1.24-.32-2.18l.83-5.18.51.64a10.57 10.57 0 0 1-6.4 6.78c-1.45.56-2.92.84-4.41.84Zm33.75-.13c-.9 0-1.6-.22-2.11-.64a4.64 4.64 0 0 1-1.09-2.05l-6.97-25.6a4.23 4.23 0 0 1-.07-1.92c.13-.55.4-.98.83-1.28.43-.34.98-.51 1.67-.51.72 0 1.28.17 1.66.51.39.34.68.96.9 1.86l6.33 25.34h-1.72l14.84-25.92c.39-.64.77-1.09 1.16-1.34.42-.3.98-.45 1.66-.45.68 0 1.22.17 1.6.51.43.3.64.7.64 1.22.04.5-.13 1.08-.51 1.72l-15.55 26.44a4.8 4.8 0 0 1-1.41 1.6c-.51.34-1.13.5-1.86.5Zm22.38 0c-.81 0-1.4-.26-1.8-.77-.33-.55-.44-1.32-.31-2.3L137.48 36c.13-.86.43-1.5.9-1.92a3.1 3.1 0 0 1 2.05-.64c.8 0 1.4.25 1.79.77.38.5.49 1.25.32 2.24l-4.16 26.43c-.13.85-.45 1.5-.96 1.92-.47.42-1.16.64-2.05.64Zm6.34-39.04c-1.03 0-1.8-.26-2.3-.77-.52-.51-.73-1.22-.65-2.11a3.4 3.4 0 0 1 1.09-2.56c.72-.6 1.66-.9 2.81-.9 1.03 0 1.8.26 2.3.77.52.47.73 1.17.65 2.11a3.6 3.6 0 0 1-1.15 2.56c-.69.6-1.6.9-2.75.9Zm17.62 39.17c-2.43 0-4.44-.47-6.01-1.41a7.7 7.7 0 0 1-3.27-3.9c-.6-1.67-.72-3.65-.38-5.96l2.62-16.38h-3.97c-.72 0-1.3-.15-1.72-.45-.39-.3-.58-.73-.58-1.28 0-.77.26-1.34.77-1.73a3.22 3.22 0 0 1 1.98-.57h4.16l1.15-7.56c.17-.8.5-1.4.96-1.79.47-.42 1.11-.64 1.92-.64.86 0 1.48.26 1.86.77.38.51.51 1.24.38 2.18l-1.08 7.04h7.68c.76 0 1.34.12 1.72.38.39.26.58.68.58 1.28 0 .73-.23 1.3-.7 1.73-.43.42-1.05.64-1.86.64h-8.13l-2.5 15.87c-.38 2.6-.1 4.48.84 5.63.94 1.15 2.4 1.73 4.41 1.73.9 0 1.6-.09 2.12-.26.5-.17.94-.25 1.28-.25.42 0 .74.13.96.38.2.22.32.62.32 1.22 0 .85-.15 1.47-.45 1.85-.26.39-.66.69-1.22.9-.47.17-1.09.3-1.85.38-.73.13-1.4.2-1.99.2Zm13.86 11.39c-.69 0-1.22-.17-1.6-.51a1.82 1.82 0 0 1-.52-1.35c0-.51.18-1.06.52-1.66l5.95-10.05-.32 2.24-7.68-28.54a3.8 3.8 0 0 1-.13-1.92c.13-.56.4-.99.83-1.28.47-.3 1.03-.45 1.67-.45.76 0 1.32.17 1.66.51.38.34.68.96.9 1.86l6.33 25.4h-1.79l14.91-25.92c.39-.64.8-1.1 1.22-1.4.43-.3.96-.45 1.6-.45.68 0 1.21.17 1.6.51.42.3.66.73.7 1.28.05.51-.13 1.09-.51 1.73L176 75.05c-.34.64-.72 1.1-1.15 1.4-.43.35-.98.52-1.66.52Zm55.7-11.52c-.8 0-1.4-.28-1.78-.83a3.6 3.6 0 0 1-.39-2.24l3.33-20.74.51 3.65-12.41-22.02c-.35-.68-.5-1.3-.45-1.85.04-.6.27-1.07.7-1.41a2.4 2.4 0 0 1 1.66-.58c.69 0 1.22.15 1.6.45.39.3.77.81 1.16 1.54l10.5 18.56h-1.41l16.76-18.95c.52-.6.98-1 1.41-1.21.43-.26.94-.39 1.54-.39.64 0 1.15.2 1.53.58.43.38.64.87.64 1.47.05.6-.21 1.2-.76 1.8l-19.53 22 1.8-3.64-3.4 21.18c-.25 1.75-1.25 2.63-3 2.63Z" fill="#fff"/><path d="M257.08 65.38c-2.94 0-5.46-.55-7.55-1.66-2.1-1.1-3.71-2.7-4.87-4.8A15.63 15.63 0 0 1 243 51.5c0-2.73.4-5.2 1.22-7.43a18.48 18.48 0 0 1 3.52-5.89 15.94 15.94 0 0 1 12.1-5.18c2.94 0 5.45.58 7.54 1.73 2.1 1.1 3.7 2.7 4.8 4.8a14.79 14.79 0 0 1 1.73 7.36c0 2.73-.43 5.22-1.28 7.49a17.06 17.06 0 0 1-3.52 5.88 15.68 15.68 0 0 1-5.31 3.78c-2.05.9-4.29 1.34-6.72 1.34Z" fill="#FF1F1F"/><defs><linearGradient id="a" x1="259" y1="49" x2="16.01" y2="17.78" gradientUnits="userSpaceOnUse"><stop stop-color="red" stop-opacity=".61"/><stop offset="1" stop-color="red" stop-opacity=".09"/></linearGradient></defs></svg>